PathFileType	4	(X/Y/Z)	58_2_63_p1_0-186_filt_butterworth.trc
DataRate	CameraRate	NumFrames	NumMarkers	Units	OrigDataRate	OrigDataStartFrame	OrigNumFrames
33.0	33.0	4	27	m	33.0	0	186
Frame#	Time	RHip			RKnee			RAnkle			RBigToe			RSmallToe			RHeel			LHip			LKnee			LAnkle			LBigToe			LSmallToe			LHeel			Neck			Head			Nose			RShoulder			RElbow			RWrist			RThumb			RIndex			RPinky			LShoulder			LElbow			LWrist			LThumb			LIndex			LPinky			
		X1	Y1	Z1	X2	Y2	Z2	X3	Y3	Z3	X4	Y4	Z4	X5	Y5	Z5	X6	Y6	Z6	X7	Y7	Z7	X8	Y8	Z8	X9	Y9	Z9	X10	Y10	Z10	X11	Y11	Z11	X12	Y12	Z12	X13	Y13	Z13	X14	Y14	Z14	X15	Y15	Z15	X16	Y16	Z16	X17	Y17	Z17	X18	Y18	Z18	X19	Y19	Z19	X20	Y20	Z20	X21	Y21	Z21	X22	Y22	Z22	X23	Y23	Z23	X24	Y24	Z24	X25	Y25	Z25	X26	Y26	Z26	X27	Y27	Z27	
0	0.0	0.33286630499676273	0.8212609880006415	0.7264053643517767	0.3411323467627702	0.3277210074773385	0.7454286084735198	0.34785993866398757	-0.10486970391397626	0.7521662110808685	0.2851301018310863	-0.11235399636772343	0.5215235951513619	0.3594738086364685	-0.10511841274487496	0.5471827943740448	0.3131010494943023	-0.18355301253264308	0.8433064549087681	0.12424732361016937	0.8057911584594775	0.7266415584553167	0.12856847838502558	0.3276896217510101	0.7435473507478577	0.11709039906981615	-0.0865418514137059	0.7340378790921911	0.12346471539982089	-0.10426443546090057	0.532352213415394	0.068407636310637	-0.13607533082585108	0.5944435028254245	0.1378009190786321	-0.16008699555674935	0.8119436903770408	0.21109758104281054	1.3898877071211662	0.7737855954178461	0.23261219835114938	1.6445412544783489	0.7088074309284288	0.2300209990197836	1.4968763074587932	0.6506108501241863	0.35970663688710797	1.319503337025755	0.7088050428020193	0.4185281618252536	1.0333339425846697	0.7532337942864087	0.30876445365785404	0.8495969507636983	0.5555978805437904	0.2179207401349022	0.762132863040665	0.5335091205632424	0.21114850292421722	0.7446485269303708	0.5442447346337285	0.2140567839840253	0.7568745402455604	0.5496382136537135	0.07149977171754417	1.3062889629799448	0.7442418800050743	0.054175862508588066	1.0370512291697735	0.6923448512676482	0.13251701765213253	0.8489394782613362	0.5632936503691528	0.21886619520551417	0.7844895943477327	0.5421432942870398	0.22373533600192128	0.7598257750078194	0.5368517147073308	0.2004418966095942	0.7386118692823764	0.5555466378225886	
1	0.0303030303030303	0.334530688521195	0.8195660053169904	0.7307317299557865	0.3416830831772104	0.3252829402062868	0.7485876628897993	0.34772843250254115	-0.10696834744935013	0.7533453199830226	0.2857874605027956	-0.11385985408051391	0.5233088687180515	0.36186362781603165	-0.10163578095945205	0.5427666658361735	0.3130055368942445	-0.18283849739806513	0.8427479900203073	0.12498672648851637	0.806965043386787	0.7271450583335387	0.12867694371525096	0.3278811829550891	0.742016347191892	0.11710392077852501	-0.08730580167954037	0.7341272206959902	0.12359957896108723	-0.10270602574237928	0.5294203315821844	0.06706063176184594	-0.1345569111675405	0.5926178894592362	0.13764025534408844	-0.15950915413000638	0.8120945292587795	0.21107401517997734	1.3898911421395619	0.7737661309035134	0.233224329151527	1.644331864963764	0.710997742120913	0.23004266572807058	1.496880426329184	0.6506554133461124	0.3584882837758054	1.3182956295695734	0.7147025825667358	0.4186462568140862	1.0349957849766696	0.7530998512024303	0.3079458212088687	0.8495961021354078	0.5553327369051705	0.2198679638979542	0.765320015402015	0.5246958499305674	0.21217570037329614	0.7462265698812964	0.5375700103253568	0.21574651054600516	0.7547049562717536	0.5545267001677361	0.07038695542129197	1.306837115695601	0.7393542252538988	0.05324172849285318	1.03746827993642	0.6925136407671469	0.13298360818819707	0.8483866292291206	0.5643934664773462	0.2204121787165235	0.7819792037386152	0.5423996961540873	0.22352070465546373	0.7596295248362627	0.5367356849658129	0.20005120637471596	0.7379571775778613	0.5554390069463888	
2	0.0606060606060606	0.3357569836238122	0.818336597797385	0.7340938954573082	0.3421038734793901	0.3234462260379116	0.7510111736053736	0.3476374908948948	-0.10839503419243172	0.7541852568076375	0.2860752294646404	-0.11454707257915037	0.5240182295494075	0.36320827368444275	-0.09932301907223295	0.5398421792497721	0.312996107330438	-0.1822577795957434	0.842411007374779	0.12542552854403063	0.8077543001313169	0.7276992443440673	0.12867688744613726	0.32797701652557354	0.740846433231045	0.11727019499890302	-0.08815315533214739	0.734501268904022	0.12389219265357976	-0.10144933003348429	0.5283980435792384	0.06606270937735596	-0.1341253508194659	0.5918891936592119	0.13762362029873892	-0.1591822673005273	0.8123255605769548	0.21104871778510412	1.3898732203916722	0.773776890781204	0.2333337366219163	1.6442849279958416	0.7113416474214228	0.23015954018513876	1.4968374300282057	0.6510334793026626	0.3574798010901205	1.3175383307185036	0.718336651240441	0.41870410466995395	1.0360201488803027	0.753048634400772	0.30781755082984125	0.8496279369908961	0.5552766325630542	0.2215405551143175	0.7666429978935273	0.5212314296444582	0.2134969934443977	0.7470603557321799	0.5347466783446436	0.21679915718265805	0.753502714890019	0.5575664031019868	0.06961429215343315	1.3073676144132056	0.7358795652621841	0.052450411814766	1.0376226351044893	0.6920301249959264	0.1336334227434333	0.8475997341376096	0.5662285242394358	0.22137649979898813	0.7807315319767427	0.5426623771631675	0.2238926291596293	0.7594595639710755	0.5367287587061675	0.19992683402555195	0.7379690092573792	0.5554483055710082	
3	0.0909090909090909	0.33658899760036765	0.8175077557207425	0.7365694133490752	0.3424030730947826	0.3221650549376198	0.7527476468306725	0.34757970659894816	-0.10922276175358553	0.7547221680145147	0.2861115973474848	-0.114653849537026	0.5240255061729748	0.36375550967423	-0.0979959835064816	0.5381767099234314	0.3130592871888146	-0.18180465837950155	0.8422678565590573	0.12560394252526189	0.8081949494454883	0.7282677868573402	0.12858584039707824	0.32799020454484396	0.7399990587671513	0.11757149336230587	-0.08907166350090999	0.7351245106741636	0.12423124026724225	-0.10059771536621767	0.5289132826233693	0.06535802365615342	-0.1344680671325549	0.5920177542369952	0.13773464294487425	-0.15908236286900684	0.8126280470394612	0.21102317264944948	1.3898378661908646	0.7738118638337401	0.23305702363129427	1.6443626067718484	0.7102677310630086	0.2303384749080771	1.496762036840559	0.6516331786469549	0.3566639339056602	1.3171432479242562	0.7201576860589156	0.41871620664593046	1.0365336342520568	0.7530623557437937	0.3082180852228879	0.849679871372829	0.555381292330832	0.22292704117175233	0.7665052364560093	0.5219360279618904	0.2149947008734321	0.7473436661289946	0.5348833426220059	0.2173421245718481	0.7530597224734169	0.5591261449653152	0.06909647758233621	1.3078857100773107	0.7334641494472958	0.0517430615137955	1.0375394584938145	0.6912241555853771	0.13438773670618645	0.8466769501240059	0.5685268975045898	0.22187640245130258	0.7804793500143169	0.5429342305038507	0.22468523269604448	0.7593147808193722	0.5368068115783755	0.20004019877579937	0.738480712226513	0.5555459161232645	
